<?xml version="1.0" encoding="UTF-8" standalone="no"?>
<!-- Created with Inkscape (http://www.inkscape.org/) -->

<svg
   width="300"
   height="300"
   viewBox="0 0 79.374998 79.375"
   version="1.1"
   id="svg1"
   inkscape:version="1.3 (0e150ed6c4, 2023-07-21)"
   sodipodi:docname="to-light.svg"
   xmlns:inkscape="http://www.inkscape.org/namespaces/inkscape"
   xmlns:sodipodi="http://sodipodi.sourceforge.net/DTD/sodipodi-0.dtd"
   xmlns:xlink="http://www.w3.org/1999/xlink"
   xmlns="http://www.w3.org/2000/svg"
   xmlns:svg="http://www.w3.org/2000/svg">
  <sodipodi:namedview
     id="namedview1"
     pagecolor="#ffffff"
     bordercolor="#000000"
     borderopacity="0.25"
     inkscape:showpageshadow="2"
     inkscape:pageopacity="0.0"
     inkscape:pagecheckerboard="0"
     inkscape:deskcolor="#d1d1d1"
     inkscape:document-units="mm"
     inkscape:zoom="2.1543544"
     inkscape:cx="119.75746"
     inkscape:cy="173.83398"
     inkscape:window-width="1920"
     inkscape:window-height="1111"
     inkscape:window-x="-9"
     inkscape:window-y="-9"
     inkscape:window-maximized="1"
     inkscape:current-layer="layer1" />
  <defs
     id="defs1">
    <linearGradient
       id="linearGradient2"
       inkscape:collect="always">
      <stop
         style="stop-color:#feff11;stop-opacity:1;"
         offset="0"
         id="stop2" />
      <stop
         style="stop-color:#fdff1e;stop-opacity:0.56078431;"
         offset="0.23847167"
         id="stop4" />
      <stop
         style="stop-color:#fdff30;stop-opacity:0;"
         offset="0.76021081"
         id="stop3" />
    </linearGradient>
    <radialGradient
       inkscape:collect="always"
       xlink:href="#linearGradient2"
       id="radialGradient3"
       cx="39.6875"
       cy="39.47588"
       fx="39.6875"
       fy="39.47588"
       r="19.5"
       gradientUnits="userSpaceOnUse"
       gradientTransform="matrix(1.9359717,0,0,1.9359717,-37.146379,-36.736686)" />
  </defs>
  <g
     inkscape:label="Ebene 1"
     inkscape:groupmode="layer"
     id="layer1">
    <path
       id="path1"
       style="fill:#c0c0c0;fill-opacity:1;stroke:none;stroke-width:2.16915"
       d="M 39.687501,0 A 39.687422,39.687421 0 0 0 0,39.6875 39.687422,39.687421 0 0 0 39.687501,79.375 39.687422,39.687421 0 0 0 79.375,39.6875 39.687422,39.687421 0 0 0 39.687501,0 Z m 0,1.935853 A 37.75145,37.751449 0 0 1 77.439147,39.6875 37.75145,37.751449 0 0 1 39.687501,77.439147 37.75145,37.751449 0 0 1 1.9358532,39.6875 37.75145,37.751449 0 0 1 39.687501,1.935853 Z" />
    <circle
       style="fill:url(#radialGradient3);stroke:none;stroke-width:2.12957"
       id="path2"
       cx="39.6875"
       cy="39.6875"
       r="37.75145" />
  </g>
</svg>
